<?xml version="1.0" encoding="UTF-8"?><svg id="icons" xmlns="http://www.w3.org/2000/svg" viewBox="0 0 72.53 72.53"><defs><style>.cls-1{fill:#fff;}.cls-2{fill:#2f3382;stroke:#2f3382;stroke-linecap:round;stroke-linejoin:round;stroke-width:2.6px;}</style></defs><circle class="cls-2" cx="36.27" cy="36.27" r="34.97" transform="translate(-11.12 16.64) rotate(-22.5)"/><path class="cls-1" d="m35.15,56.9c.26.33.66.54,1.12.54s.86-.21,1.12-.54c3.47-4.6,13.82-17.84,13.82-26.88,0-8.25-6.69-14.94-14.94-14.94s-14.94,6.69-14.94,14.94c0,9.03,10.35,22.28,13.82,26.88Zm1.12-19.7c-3.96,0-7.17-3.21-7.17-7.17s3.21-7.17,7.17-7.17,7.17,3.21,7.17,7.17-3.21,7.17-7.17,7.17Z"/></svg>