<?xml version="1.0" encoding="UTF-8"?><svg id="icons" xmlns="http://www.w3.org/2000/svg" viewBox="0 0 72.53 72.53"><defs><style>.cls-1{fill:#fff;}.cls-2{fill:none;stroke:#fff;}.cls-2,.cls-3{stroke-linecap:round;stroke-linejoin:round;stroke-width:2.6px;}.cls-3{fill:#2f3382;stroke:#2f3382;}</style></defs><circle class="cls-3" cx="36.26" cy="36.26" r="34.96" transform="translate(-7.36 63.23) rotate(-76.72)"/><g><g><path class="cls-2" d="m37.18,25.21c5.6,0,10.13,4.54,10.13,10.14"/><path class="cls-2" d="m38.18,17.5c9.3,0,16.85,7.54,16.85,16.85"/></g><path class="cls-1" d="m20.02,19.84h0c-5.2,5.2-2.1,16.73,6.92,25.75,9.02,9.02,20.55,12.12,25.75,6.92,1.58-1.58,2.29-5.16,2.29-5.16.12-.59-.22-1.25-.76-1.46l-9.44-3.77c-.54-.22-1.33-.04-1.77.4l-2.73,2.73c-.52.52-1.28.65-1.87.38-.05-.02-.09-.05-.14-.07-.02-.01-.04-.02-.06-.04-2.08-1.13-4.28-2.78-6.35-4.85-2.07-2.07-3.72-4.27-4.85-6.35-.01-.02-.02-.04-.03-.06-.03-.05-.05-.09-.07-.14-.27-.6-.14-1.35.38-1.87l2.74-2.74c.44-.43.62-1.23.4-1.77l-3.77-9.44c-.21-.54-.87-.88-1.46-.76,0,0-3.58.72-5.16,2.29Z"/></g></svg>