<?xml version="1.0" encoding="UTF-8"?><svg id="Layer_1" xmlns="http://www.w3.org/2000/svg" viewBox="0 0 55.13 44.92"><defs><style>.cls-1{fill:#fff;}</style></defs><g><path class="cls-1" d="m46.75,44.92c-2.63,0-4.77-2.14-4.77-4.77s2.14-4.77,4.77-4.77,4.77,2.14,4.77,4.77-2.14,4.77-4.77,4.77Zm0-7.56c-1.53,0-2.78,1.25-2.78,2.78s1.25,2.78,2.78,2.78,2.78-1.25,2.78-2.78-1.25-2.78-2.78-2.78Z"/><path class="cls-1" d="m17.42,44.92c-2.63,0-4.77-2.14-4.77-4.77s2.14-4.77,4.77-4.77,4.77,2.14,4.77,4.77-2.14,4.77-4.77,4.77Zm0-7.56c-1.53,0-2.78,1.25-2.78,2.78s1.25,2.78,2.78,2.78,2.78-1.25,2.78-2.78-1.25-2.78-2.78-2.78Z"/><rect class="cls-1" x="15.9" y="23.11" width="32.64" height="1.99"/><rect class="cls-1" x="12.52" y="15.12" width="39.41" height="1.99"/></g><path class="cls-1" d="m54.15,7.28c-.15-.06-.32-.08-.49-.08H11L4.48.45C4.2.17,3.82,0,3.42,0H.99C.43,0-.03.47,0,1.05c.03.54.51.94,1.05.94h2.03c.08,0,.16.03.21.09l6.35,6.58s.06.08.07.12l6.55,22.63c.28.97,1.18,1.64,2.19,1.64h27.44c1,0,1.88-.64,2.17-1.6l7-22.39c.22-.7-.12-1.51-.91-1.79Zm-7.98,23.59c-.04.12-.15.2-.28.2h-27.44c-.13,0-.24-.09-.28-.21l-6.27-21.67h41.04l-6.77,21.67Z"/></svg>