<?xml version="1.0" encoding="UTF-8"?><svg id="_ëÎÓÈ_1" xmlns="http://www.w3.org/2000/svg" xmlns:xlink="http://www.w3.org/1999/xlink" viewBox="0 0 1845.43 753.09"><defs><style>.cls-1{fill:#1fb617;}.cls-2{fill:#fff;}.cls-3{fill:url(#_ÅÂÁ_Ï_ÌÌ_È_ËÂÌÚ_28);}.cls-4{fill:#6ce862;}.cls-5{fill:url(#_ÅÂÁ_Ï_ÌÌ_È_ËÂÌÚ_32);}.cls-6{fill:#2a8913;}</style><linearGradient id="_ÅÂÁ_Ï_ÌÌ_È_ËÂÌÚ_32" x1="1518.19" y1="469.31" x2="2814.59" y2="469.31" gradientTransform="translate(4191.69 -19.14) rotate(-180) scale(1 -1.02) skewX(15.71)" gradientUnits="userSpaceOnUse"><stop offset="0" stop-color="#990612"/><stop offset=".37" stop-color="#694a13"/><stop offset=".8" stop-color="#349716"/><stop offset="1" stop-color="#1fb617"/></linearGradient><linearGradient id="_ÅÂÁ_Ï_ÌÌ_È_ËÂÌÚ_28" x1="1119.31" y1="477.86" x2="1698.04" y2="477.86" gradientUnits="userSpaceOnUse"><stop offset="0" stop-color="#99e412"/><stop offset=".11" stop-color="#8ad812"/><stop offset=".72" stop-color="#3da015"/><stop offset="1" stop-color="#1f8a17"/></linearGradient></defs><path class="cls-5" d="m238.92,699.89h1077.59s130.76-129.41,130.76-129.41l91.21-182.05,59.2-165.93H238.92c-98.25,0-186.46,60.2-222.27,151.69h0c-61.28,156.55,54.16,325.7,222.27,325.7Z"/><g><path class="cls-2" d="m577.58,564.47h-55.91l24.53-112.82-66.72,77.09-.07.33h-31.1l.07-.33-33.38-77.75-24.35,113.48h-55.91l48.92-224.98h41.36l53.95,120.1,105.85-120.1h41.69l-48.92,224.98Z"/><path class="cls-2" d="m658.9,348.75c3.81-17.53,20.52-30.44,38.05-30.44s28.62,12.9,24.81,30.44c-3.74,17.21-20.77,30.11-37.98,30.11s-28.63-12.9-24.88-30.11Zm11.65,215.72h-53.6l34.89-160.46h53.6l-34.89,160.46Z"/><path class="cls-2" d="m761.54,564.47h-53.6l51.08-234.91h53.6l-51.08,234.91Z"/><path class="cls-2" d="m967.33,564.47h-53.6l1.8-8.27c-13.57,7.61-29.13,12.24-46.67,12.24-43.34,0-71.89-36.06-61.46-84.04,10.36-47.64,54.52-83.37,97.87-83.37,17.53,0,31.09,4.63,41.34,12.24l18.2-83.71h53.6l-51.08,234.91Zm-41.66-54.92l10.79-49.63c-7.41-11.58-18.2-15.22-30.11-15.22-21.84,0-41.6,17.87-46.35,39.7-4.89,22.5,7.18,40.03,29.01,40.03,11.91,0,24.21-3.31,36.65-14.89Z"/></g><g><path class="cls-2" d="m1674.93,250.89c-8.15-20.5-20.78-34.91-36.58-41.78-1.17-1.12-3.19-3.54-4.6-5.21-6.64-7.92-15.73-18.79-29.95-18.26-33.63,1.18-52.81,12.67-66.81,21.06-11.3,6.77-15.58,9.05-22.97,7.78-4.69-.81-8.81-2.96-10.49-5.43,1.21-1.78,4.05-4.71,6.04-6.76,4.92-5.05,11.03-11.34,14.81-19.82,10.69-23.97-3.24-49.55-21.76-61.45-16.44-10.56-35.29-12.42-50.43-13.9-6.02-.59-11.89-.45-17.46.36-3.21.47-9.22,1.98-11.68,2.68-25.28,7.24-35.09,32.84-35.09,32.84,1.83.18,29.73-6.01,42.31,1.29,5.12,2.97,10.65,14.21,8.85,22.23-2.13,9.52-9.53,19.22-21.98,28.82-3.57,2.75-7.35,5.39-11.36,8.18-8.21,5.73-16.71,11.65-24.53,19.37-12.22,12.07-49.39,48.79-22.46,93.18,5.01,8.25,11.04,15.32,16.88,22.15,9.1,10.65,16.96,19.85,18.33,30.37,1.84,14.06-10.48,28.88-22.63,38.05-6.54,4.94-11.61,7.54-15.96,8.17-3.14.46-5.75-.63-6.17-1.19-1.34-1.91-1.08-9.05-.91-13.77.04-1.01.07-2.02.1-3.01.56-18.75-2.32-34.37-8.8-47.75-7.66-15.81-24.47-29.04-45.49-32.71-9.23-1.61-37.17-4.67-37.17-4.67,0,0,16.17,19.66,18.81,26.01,2.53,6.1-.52,12.38-1.11,13.21-2.42,3.44-7.07,6.78-11.99,10.32-2.11,1.52-4.21,3.03-6.25,4.6-15.36,11.84-27.88,27.35-36.21,44.87-7.22,15.17-8.36,28.81-3.39,40.53,5.01,11.83,14.86,18.45,21.38,22.82,15.61,10.49,30.36,20.4,40.88,33.38,10.04,12.39,14.48,26.65,11.89,38.15-3.14,13.89-16.21,24.41-26.18,30.61-3.58-31.85-27.63-62.2-59.45-66.54-9.61-1.31-38.08,1.9-38.08,1.9,0,0,13.67,7.32,21.56,17.51,1.92,2.48,3.01,6.67,3.21,12.3-.08,1.32-.44,5.41-1.41,8.03-2.3,6.23-11.97,14.1-20.5,21.04-6.33,5.15-12.88,10.48-18.23,16.4-20.27,22.42-28.74,43.55-25.91,64.58l.06.4c2.13,13.67,2.12,22.54-.05,26.38-2.04,3.62-13.21,13.88-18.36,17.25-9.19,6.01-18.24,13.94-18.66,21.52-.51,9.3,2.43,14.66,8.51,20.64,4.93,4.85,10.68,6.23,12.85,6.76,5.48,1.32,11.07,1.98,16.68,1.98,2.23,0,4.46-.1,6.69-.31,18.24-1.71,37.18-5.31,57.91-11,11.7-3.21,26.47-7.86,40.39-15.91,29.39.43,55.48-13.3,78.68-25.45,127.28-66.67,239.74-162.95,325.23-278.43,21.53-29.08,42.13-61.17,47.12-98.72,2.94-22.16.13-44.86-8.13-65.64Z"/><g><path class="cls-1" d="m1247.25,668.45c-.58-7.37-4.92-14.03-10.43-18.96-5.51-4.93-12.16-8.37-18.73-11.75l-73,11.14c6.06,38.85-2.9,44.83-27.83,59.36-1.98,1.15-8.87,5.03-8.98,7.31-.23,4.56,1.1,6.74,2.74,8.35,1.02,1,2.46,1.43,3.85,1.76,5.57,1.34,11.36,1.75,17.07,1.22,18.64-1.75,36.56-5.44,54.6-10.4,15.46-4.25,30.88-9.66,43.82-19.13,9.41-6.89,17.82-17.27,16.9-28.9Z"/><path class="cls-1" d="m1657.03,258.01c-5.29-13.29-13.98-26.27-27.26-31.61-7.94-3.2-16.75-21.82-25.3-21.52-54.18,1.9-75.59,51.99-107.01,46.59-9.82-1.69-16.72-4-13.49-41.24,1.25-14.41,16.94-22.4,22.83-35.61,5.94-13.32-2.31-29.52-14.58-37.4-12.27-7.88-27.39-9.51-41.9-10.94-7.66-.75-16.31.31-24.32.21,4.31.28,8.6.82,12.63,2.34,15.7,5.9,22.97,25.52,19.3,41.89s-15.73,29.62-29.01,39.86c-11.33,8.74-23.92,15.95-34.11,26.01-20.49,20.24-35.58,43.01-19.52,69.48,12.17,20.05,34.61,35.3,37.84,60.01,2.88,22.02-12.4,42.53-30.12,55.92-7.39,5.58-15.62,10.53-24.78,11.86-9.16,1.34-19.41-1.61-24.72-9.19-5.61-8-4.58-18.66-4.29-28.42.39-13.25-1.1-26.85-6.88-38.78-5.78-11.93-19.44-19.41-32.37-22.31,7.38,6.47,6.14,18.83.49,26.85-5.65,8.02-14.46,13.1-22.23,19.09-12.97,10-23.54,23.09-30.57,37.88-3.68,7.74-6.39,16.86-3.05,24.75,2.68,6.33,8.67,10.51,14.38,14.34,16.25,10.92,32.78,22.04,45.1,37.24,12.32,15.21,20.02,35.42,15.71,54.52-4.64,20.55-22.01,35.88-40.46,46.04-5.73,3.15-13.21,5.84-18.39,1.86-4.73-3.63-4.66-10.59-5.01-16.54-1.52-25.41-20.43-48.84-44.93-55.71,0,0,4.51,3.94,6.23,5.64,6.04,5.93,4.42,17.03,1.49,24.97-6.38,17.26-30.16,30.03-42.51,43.68-12.34,13.65-23.56,30.85-21.11,49.1,1.78,13.24,20.11,24.69,31.08,32.31,10.96,7.63,23.85,11.94,36.65,15.75,31.88,9.48,60.88-5.61,88.95-20.31,124.93-65.44,234.78-159.48,318.69-272.83,20.01-27.03,39.08-56.46,43.51-89.8,2.5-18.85.09-38.32-6.94-55.99Z"/></g><g><path class="cls-4" d="m1276.01,660.95c-.58-7.37-4.92-14.03-10.43-18.96-5.51-4.93-12.16-5.56-18.73-8.94l-67.38,8.33c13.47,41.12,2.26,41.87-25.5,53.45-2.11.88-15.83,19.96-14.2,21.57,1.02,1,2.46,1.43,3.85,1.76,5.57,1.34,11.36,1.75,17.07,1.22,18.64-1.75,36.56-5.44,54.6-10.4,15.46-4.25,30.88-9.66,43.82-19.13,9.41-6.89,17.82-17.27,16.9-28.9Z"/><path class="cls-4" d="m1206.6,672.08c-6.38-4.61-16.5-9.49-21.07-15.9-4.57-6.41-7.14-14.67-5.12-22.28,1.51-5.68,5.36-10.4,9.11-14.92,8.95-10.81,21.64-21.62,30.59-32.43-9.98,20.79,2.64,34.92,9.45,40.98,7.46,6.65,18.16,5.95,27.25,6.56,21.28,1.44,41.07-12.17,57.59-25.66,16.52-13.49,32.12-42.71,34.97-63.84,3.12-23.14-7.23-50.25-23.79-66.72-12.87-12.8-34.85-21.19-47.28-35.4-4.17-4.76-6.76-14.51-3.49-19.93,4.49-7.43,10.23-10.61,16.12-14.05,6.65-3.89,17.49-9.83,12.59-25.56,15.03,11.18-.14,31.24,1.16,43.88,2.58,25.04,16.9,34.85,34.64,42.24,36.62,15.26,69.24-8.51,88.6-38.45,15.73-24.33,24.97-78.5,14.96-100.18-3.08-6.67-7.3-13.38-14-16.37-13.23-5.91-22.28-22.87-20.77-37.28,1.51-14.41,15.68-27.49,26.64-36.97,6.02-5.21,12.82-9.47,18.77-14.77,7.2-6.41,17.22-13.49,21.3-22.22-3.04,6.9-12.26,22.1-11.08,35.49.57,6.46,6.78,19.99,11.35,24.59,11.18,11.24,21.51,12.64,50.17-9.14,6.2-4.71,16.32-7.03,23.59-4.23,8.65,3.34,13.16,12.77,15.99,21.6,12.91,40.21,7.86,85.83-13.54,122.24-63.83,108.63-131.7,218.64-246.75,270.02-15.83,7.07-32.27,13.28-49.48,15.32-17.21,2.04-34.46,3.55-48.51-6.6Z"/></g><path class="cls-2" d="m1840.6,18.08c-4.75-8.16-12.38-13.96-21.48-16.34-12.99-3.39-27.57-1.78-40,4.41-15.1,7.53-27.51,17.83-41.5,34.45-19.04,22.63-35.65,46.7-49.37,71.56-4.36,7.9-7.99,15.66-11.84,23.88-3.42,7.32-6.96,14.88-11.21,22.89-3.76,7.09-10.37,11.47-20.18,13.37-21.94,2.64-36.54,8.22-45.9,17.53l-13.41,13.33c-2.64.33-5.21.81-7.72,1.47-11.27,2.97-20.2,9.05-26.73,14.02-25.01,19.02-43.84,45.05-54.46,75.27-8.43,24.01-19.51,48.09-30.21,71.38-5.43,11.8-11.04,24.01-16.3,36.18-17.37,40.16-39.42,86.71-71.3,127.46-45.75,58.48-76.04,90.99-124.47,117.58-45.6,25.03-82.67,40.59-136.78,57.42-12.27,3.82-19.55,15.78-17.29,28.43,2.17,12.2,12.44,20.73,24.67,20.73.45,0,.9-.01,1.36-.03,41.92-2.15,81.86-6.57,122.09-13.54,71.41-12.35,184.44-54.75,267.98-133.59,79.55-75.07,136.24-147.33,178.42-227.42,6.77-12.85,13.77-26.15,18.17-41.29,5.41-18.6,5.53-36.63.35-52.15-.86-2.59-1.88-5.07-2.99-7.48,0,0,8.93-19.06,6.61-39.73-.71-6.36-3.31-11.87-5.06-16.49-1.3-4.26-2.8-9.21-3.2-10.6-2.9-13.4-.02-30.21,8.56-49.97,14.92-34.33,40.15-66.76,72.98-93.77,1.98.52,3.95,1.18,5.85,1.99,9.35,3.96,19.95,3.66,29.11-.83,9.28-4.55,16.12-12.89,18.77-22.88l.08-.29c2.45-9.17,1.17-18.73-3.61-26.94Z"/><g><path class="cls-3" d="m1514.98,300.3c9.23-26.28,25.77-49.46,47.94-66.33,6.06-4.61,12.63-8.78,19.98-10.72,7.28-1.92,14.98-1.56,22.42-.41,13.33,2.06,26.26,6.63,37.93,13.4,9.92,5.75,18.88,13.05,27.27,20.87,10.37,9.67,20.19,20.63,24.68,34.07,4.36,13.06,3.27,27.45-.58,40.67-3.84,13.22-10.3,25.51-16.72,37.69-44.76,84.99-104.73,156.46-174.59,222.38-85.21,80.41-198.04,118.24-258.05,128.62-40.87,7.07-80.47,11.26-119.79,13.28-6.91.35-8.64-9.45-2.03-11.5,57.7-17.94,95.73-34.44,140.33-58.92,50.75-27.86,83.04-62.08,130.38-122.59,31.14-39.8,53.75-85.3,73.8-131.68,15.63-36.14,33.95-71.67,47.01-108.82Z"/><path class="cls-6" d="m1814.26,20.38c-8.59-2.24-18.48-1-26.55,3.02-13.43,6.69-23.77,15.85-35.36,29.61-17.91,21.29-33.8,44.1-47.25,68.46-7.89,14.29-13.7,29.14-22.89,46.48-7.14,13.48-19.5,20.71-34.29,23.4-12.56,1.47-27.63,4.58-35.23,12.14,9.91,4.36,21.22,4.22,31.59,7.36,15.98,4.83,28.66,17.15,38.19,30.78,4.46,6.38,9,11.58,14.67,16.93,3.98-10.46.73-20.2-3.35-30.97-.01-.03-.02-.06-.03-.09h.01s-3.18-10.38-3.63-12.1c-4.63-20.54,1.1-42.68,9.6-62.26,17.15-39.47,45.22-73.67,78.45-101.01,2.07-1.71,4.23-3.42,6.8-4.22,3.18-.98,6.62-.44,9.84.38,3.04.77,6.03,1.77,8.92,3,9,3.81,19.25-1.46,21.76-10.92.03-.11.06-.22.09-.32,2.28-8.55-2.79-17.44-11.35-19.67Z"/></g><path class="cls-2" d="m1606.93,250.66c-5.32-5.85-14.24-7.24-21.96-5.49-7.71,1.74-33.12,29.1-53.14,77.1-39.37,94.41-72.68,159.1-74.73,168.08,4.63.65,8.5-3.31,11.47-6.93,19.82-24.2,32.3-51.48,48.91-77.99,6.22-9.93,27.11-50.8,31.35-61.71,7.5-19.28,13.26-33.08,23.21-51.21,3.69-6.74,14.14-14.55,21.3-17.35,3.91-1.53,8.39-1.57,11.96-3.77,6.73-4.15,6.95-14.87,1.62-20.72Z"/><path class="cls-4" d="m1469.58,147.07c4.8-.88,12.06,1.04,15.91,3.25,4.67,2.68,6.8,7.15,6.36,12.51-.14,1.75-.59,4.41-2.01,6.62-4.23,6.62-6.52,9.32-13.17,13.34,11.89-16.92-.31-35.95-7.1-35.73Z"/></g></svg>