<?xml version="1.0" encoding="UTF-8"?><svg id="_1" xmlns="http://www.w3.org/2000/svg" viewBox="0 0 1607.71 894.74"><defs><style>.cls-1{fill:#2f3382;}</style></defs><rect class="cls-1" x="0" y="0" width="1121.76" height="632.93" rx="10.58" ry="10.58" transform="translate(1121.76 632.93) rotate(-180)"/><g><g><path class="cls-1" d="m1196.31,777.13c0,64.96,52.66,117.61,117.61,117.61,64.96,0,117.61-52.66,117.61-117.61,0-64.96-52.66-117.61-117.61-117.61-64.96,0-117.61,52.66-117.61,117.61Zm64.22,0c0-29.49,23.91-53.4,53.4-53.4s53.4,23.91,53.4,53.4-23.91,53.4-53.4,53.4-53.4-23.91-53.4-53.4Z"/><path class="cls-1" d="m328.12,777.12c0,12.23,1.86,24.04,5.33,35.12,14.93,47.81,59.55,82.5,112.28,82.5,52.74,0,97.34-34.69,112.29-82.5,3.46-11.09,5.33-22.89,5.33-35.12,0-13.74-2.36-26.94-6.7-39.2-16.15-45.68-59.71-78.4-110.93-78.4s-94.76,32.73-110.91,78.4c-4.33,12.26-6.7,25.46-6.7,39.2Zm64.22,0c0-29.49,23.91-53.4,53.4-53.4s53.4,23.91,53.4,53.4-23.91,53.4-53.4,53.4-53.4-23.91-53.4-53.4Z"/></g><g><path class="cls-1" d="m1135.53,814.72c.65,3.7,3.99,6.33,7.75,6.33h20c5.14,0,8.87-4.82,7.68-9.81-3.11-13.01-4.48-26.68-3.86-40.74,3.38-76.1,65.31-137.5,141.42-140.23,83.5-3.01,152.39,64.03,152.39,146.87,0,7.3-.53,14.48-1.57,21.5-1.56,10.59,7.33,19.78,17.99,18.88,27.4-2.31,59.46-6.09,92.59-12.29,17.75-3.33,31.11-18.04,32.86-36.02,4.38-45,9.87-133.4-3.44-213.19-12.69-76.13-59.6-203.59-88.81-278.54-15.48-39.7-51.51-67.64-93.79-72.81-45.44-5.56-116.81-11.1-224.47-12.25-22.8-.25-41.43,18.15-41.43,40.95v465.36s-29.07,37.16-15.3,115.99Zm133.48-519.35c0-12.1,9.81-21.91,21.91-21.91h145.65c19.94,0,37.82,12.26,44.99,30.86,23.27,60.43,54.81,146.97,72.06,214.06,3.11,12.13-6.67,23.7-19.15,22.65l-33.9-2.83c-30.16-2.51-59.83-9.1-88.23-19.57-28.69-10.57-67.11-26.34-107.21-47.45-22.17-11.67-36.12-34.61-36.12-59.65v-116.15Z"/><g><g><rect class="cls-1" x="715.26" y="690.4" width="348.82" height="101.76" rx="27.56" ry="27.56" transform="translate(1779.34 1482.55) rotate(-180)"/><g><path class="cls-1" d="m587.39,737.92c3.46,12.48,5.31,25.64,5.31,39.2,0,8.81-.78,17.45-2.28,25.84-.87,4.84,2.85,9.28,7.77,9.28h13.77c3.86,0,7.18-2.78,7.8-6.59,1.52-9.29,2.3-18.82,2.3-28.53,0-13.46-1.51-26.59-4.39-39.2-6.75-29.66-21.01-56.5-40.67-78.4h-43.23c25.65,19.25,44.83,46.69,53.61,78.4Z"/><path class="cls-1" d="m1186.98,659.51l-30.83,78.4h-554.07c-8.78-31.71-27.96-59.16-53.61-78.4h638.51Z"/></g></g><g><path class="cls-1" d="m269.39,777.13c0,9.71.79,19.24,2.3,28.53.62,3.81,3.94,6.59,7.8,6.59h13.77c4.92,0,8.64-4.44,7.77-9.28-1.5-8.39-2.28-17.03-2.28-25.84,0-13.57,1.85-26.72,5.32-39.2,8.78-31.71,27.96-59.16,53.61-78.4h-43.23c-19.66,21.91-33.92,48.75-40.67,78.4-2.88,12.61-4.39,25.74-4.39,39.2Z"/><path class="cls-1" d="m20.61,659.52v66.31s118.94,9.55,118.94,9.55c21.07,1.69,42.19,2.54,63.33,2.54h86.51c8.78-31.71,27.96-59.16,53.61-78.4H20.61Z"/><path class="cls-1" d="m33.77,659.52h-16.04c-3.41,0-6.18,2.76-6.18,6.17v88.93c0,.59-.48,1.07-1.07,1.07H2.55C1.14,755.7,0,756.84,0,758.25v45.76c0,1.41,1.14,2.55,2.55,2.55h22.37c4.89,0,8.85-3.96,8.85-8.85v-138.2Z"/></g></g></g></g></svg>